<svg width="434" height="139" viewBox="0 0 434 139" fill="none" xmlns="http://www.w3.org/2000/svg">
<path d="M15.9021 108.578H0.211121L29.7471 32.8918H45.5407L15.9021 108.578ZM42.7709 108.578H27.0799L56.6159 32.8918H72.4094L42.7709 108.578Z" fill="#75CEE8"/>
<path d="M105.627 108.578H89.7305L101.729 32.6867H117.626L145.11 89.1948H140.188L149.11 32.6867H165.006L153.007 108.578H137.111L109.626 52.1722H114.549L105.627 108.578ZM167.925 86.5283C167.925 82.221 168.711 78.2213 170.284 74.5293C171.856 70.769 174.01 67.5214 176.745 64.7866C179.548 61.9834 182.796 59.7955 186.488 58.223C190.248 56.6505 194.282 55.8642 198.589 55.8642C203.717 55.8642 208.195 56.8556 212.024 58.8383C215.853 60.7527 218.827 63.4533 220.946 66.9402C223.066 70.4271 224.126 74.4952 224.126 79.1443C224.126 83.4517 223.339 87.4855 221.767 91.2459C220.194 94.9379 218.006 98.1855 215.203 100.989C212.468 103.723 209.221 105.877 205.46 107.45C201.768 109.022 197.769 109.808 193.461 109.808C188.402 109.808 183.924 108.851 180.027 106.937C176.198 104.954 173.224 102.219 171.104 98.7325C168.985 95.2456 167.925 91.1775 167.925 86.5283ZM183.514 85.1951C183.514 88.5453 184.471 91.2459 186.385 93.297C188.299 95.3481 190.898 96.3737 194.179 96.3737C196.846 96.3737 199.239 95.69 201.358 94.3226C203.546 92.8868 205.289 90.9724 206.589 88.5795C207.888 86.1181 208.537 83.4175 208.537 80.4776C208.537 77.1274 207.58 74.4268 205.666 72.3757C203.751 70.3246 201.153 69.299 197.871 69.299C195.273 69.299 192.88 70.0169 190.692 71.4527C188.505 72.8201 186.761 74.7003 185.462 77.0932C184.163 79.4862 183.514 82.1868 183.514 85.1951ZM236.97 108.578L228.868 57.3H244.149L246.2 74.7345C246.473 76.8539 246.713 79.2127 246.918 81.8108C247.123 84.3405 247.26 86.7676 247.328 89.0922C248.08 87.1095 248.969 84.8533 249.994 82.3236C251.02 79.7255 252.08 77.1958 253.174 74.7345L260.865 57.3H276.556L278.607 74.7345C278.676 75.3498 278.778 76.5805 278.915 78.4265C279.12 80.2041 279.291 82.0843 279.428 84.067C279.565 86.0498 279.667 87.7248 279.735 89.0922C280.351 87.5197 281.035 85.8105 281.787 83.9645C282.539 82.1185 283.257 80.375 283.94 78.7341C284.624 77.0249 285.171 75.6916 285.581 74.7345L293.273 57.3H310.092L284.453 108.578H270.505L267.942 91.5536C267.668 89.6392 267.395 87.4855 267.121 85.0926C266.848 82.6996 266.608 80.4776 266.403 78.4265C266.267 76.3753 266.164 74.9396 266.096 74.1191C265.822 74.9396 265.275 76.3753 264.455 78.4265C263.634 80.4092 262.711 82.6312 261.686 85.0926C260.729 87.4855 259.806 89.7418 258.917 91.8612L252.045 108.578H236.97ZM338.763 32.6867L326.764 108.578H310.766L322.765 32.6867H338.763ZM367.582 47.6598H321.842L324.201 32.6867H369.94L367.582 47.6598ZM357.736 78.8367H316.611L318.868 64.2738H359.992L357.736 78.8367ZM411.503 40.3783L400.734 108.578H384.736L395.504 40.3783H411.503ZM373.249 47.6598L375.608 32.6867H433.757L431.398 47.6598H373.249Z" fill="#F9F9F9"/>
</svg>
